<svg width="29" height="26" viewBox="0 0 29 26" fill="none" xmlns="http://www.w3.org/2000/svg">
<path d="M26.56 17.8605C25.7787 20.3188 23.9269 22.4138 21.3704 23.7316C18.814 25.0493 15.7389 25.4939 12.7529 24.9776C9.76684 24.4612 7.08706 23.0214 5.24304 20.9428C3.39903 18.8641 2.52495 16.2977 2.7935 13.7507L4.11782 13.8817C3.87875 16.1491 4.65688 18.4338 6.29847 20.2843C7.94005 22.1348 10.3257 23.4165 12.9839 23.8762C15.6422 24.3358 18.3796 23.94 20.6555 22.7669C22.9313 21.5938 24.5798 19.7288 25.2754 17.5404L26.56 17.8605Z" fill="white"/>
<path d="M3.74626 10.1399L5.98329 14.0703L0.892984 13.6486L3.74626 10.1399Z" fill="white"/>
<path d="M3.11464 8.13947C3.89597 5.68119 5.74782 3.58619 8.30425 2.26845C10.8607 0.950703 13.9357 0.50608 16.9217 1.02244C19.9078 1.53879 22.5875 2.97856 24.4315 5.05724C26.2755 7.13593 27.1496 9.70231 26.8811 12.2493L25.5567 12.1183C25.7958 9.85089 25.0177 7.56624 23.3761 5.71574C21.7345 3.86524 19.3489 2.58353 16.6907 2.12385C14.0325 1.66418 11.295 2.06 9.0192 3.23308C6.7434 4.40617 5.09484 6.27119 4.39928 8.45962L3.11464 8.13947Z" fill="white"/>
<path d="M25.9283 15.8601L23.6913 11.9297L28.7816 12.3514L25.9283 15.8601Z" fill="white"/>
</svg>
